<svg width="32" height="32" viewBox="0 0 32 32" fill="none" xmlns="http://www.w3.org/2000/svg">
<path d="M31.0625 0H0.9375C0.41975 0 0 0.41975 0 0.9375V31.0625C0 31.5802 0.41975 32 0.9375 32H31.0625C31.5802 32 32 31.5802 32 31.0625V0.9375C32 0.41975 31.5802 0 31.0625 0ZM30.125 30.125H1.875V1.875H30.125V30.125Z" fill="#2B398F"/>
<path d="M31.0625 0H0.9375C0.41975 0 0 0.41975 0 0.9375V31.0625C0 31.5802 0.41975 32 0.9375 32H31.0625C31.5802 32 32 31.5802 32 31.0625V0.9375C32 0.41975 31.5802 0 31.0625 0ZM30.125 30.125H1.875V1.875H30.125V30.125Z" fill="#3749BB"/>
<path d="M16 2.5625C8.5735 2.5625 2.5625 8.5725 2.5625 16C2.5625 23.4072 8.56119 29.4375 16 29.4375C23.4436 29.4375 29.4375 23.4001 29.4375 16C29.4375 8.5735 23.4275 2.5625 16 2.5625ZM21.257 5.70319C21.1326 8.52856 19.982 11.2062 18.0314 13.2276C17.6946 12.9813 17.2837 12.7785 16.8392 12.6666C16.3661 9.60994 14.839 6.87731 12.7289 4.9095C15.6241 4.05394 18.7061 4.39544 21.257 5.70319ZM17.5625 16C17.5625 16.8594 16.8635 17.5625 16 17.5625C15.1055 17.5625 14.3879 16.8081 14.4404 15.9076C14.4407 15.9031 14.4411 15.8987 14.4414 15.8942C14.4959 15.0802 15.1758 14.4375 16 14.4375C16.8622 14.4375 17.5625 15.1391 17.5625 16ZM10.7656 5.69187C12.9754 7.44919 14.4674 9.98544 14.9483 12.7277C14.2856 12.9412 13.7106 13.3508 13.2909 13.8879C10.3791 13.1129 7.29137 13.3474 4.52994 14.5353C5.02069 10.6698 7.42762 7.39381 10.7656 5.69187ZM4.45581 16.6454C6.95931 15.3294 9.85225 14.9745 12.5813 15.6414C12.569 15.7593 12.5625 15.8789 12.5625 16C12.5625 16.3285 12.6098 16.6459 12.6962 16.947C12.6969 16.9492 12.6974 16.9514 12.698 16.9536C10.3277 18.8757 8.71537 21.5542 8.06825 24.4048C5.88869 22.3469 4.61737 19.5656 4.45581 16.6454ZM16 27.5625C13.6914 27.5625 11.5389 26.882 9.73175 25.7116C10.1343 22.9389 11.5613 20.3654 13.7041 18.5557C14.1952 18.9973 14.8136 19.2997 15.4971 19.4003C16.2572 22.3146 17.9815 24.8849 20.3743 26.7024C19.0241 27.2563 17.5473 27.5625 16 27.5625ZM22.2455 25.7266C19.8685 24.1961 18.1355 21.8536 17.3718 19.1513C17.7567 18.9834 18.1395 18.7271 18.4565 18.4038C21.3353 19.5349 24.4656 19.5921 27.2286 18.7603C26.5211 21.6386 24.7271 24.1276 22.2455 25.7266ZM19.3565 16.7396C19.409 16.5013 19.4375 16.2539 19.4375 16C19.4375 15.5486 19.3492 15.1176 19.1903 14.7224C21.3241 12.599 22.6759 9.81663 23.0419 6.83588C25.7889 8.95175 27.5625 12.2724 27.5625 16C27.5625 16.2248 27.5554 16.448 27.5426 16.6697C24.9169 17.6918 21.9738 17.7076 19.3565 16.7396Z" fill="#2B398F"/>
<path d="M16 2.5625C8.5735 2.5625 2.5625 8.5725 2.5625 16C2.5625 23.4072 8.56119 29.4375 16 29.4375C23.4436 29.4375 29.4375 23.4001 29.4375 16C29.4375 8.5735 23.4275 2.5625 16 2.5625ZM21.257 5.70319C21.1326 8.52856 19.982 11.2062 18.0314 13.2276C17.6946 12.9813 17.2837 12.7785 16.8392 12.6666C16.3661 9.60994 14.839 6.87731 12.7289 4.9095C15.6241 4.05394 18.7061 4.39544 21.257 5.70319ZM17.5625 16C17.5625 16.8594 16.8635 17.5625 16 17.5625C15.1055 17.5625 14.3879 16.8081 14.4404 15.9076C14.4407 15.9031 14.4411 15.8987 14.4414 15.8942C14.4959 15.0802 15.1758 14.4375 16 14.4375C16.8622 14.4375 17.5625 15.1391 17.5625 16ZM10.7656 5.69187C12.9754 7.44919 14.4674 9.98544 14.9483 12.7277C14.2856 12.9412 13.7106 13.3508 13.2909 13.8879C10.3791 13.1129 7.29137 13.3474 4.52994 14.5353C5.02069 10.6698 7.42762 7.39381 10.7656 5.69187ZM4.45581 16.6454C6.95931 15.3294 9.85225 14.9745 12.5813 15.6414C12.569 15.7593 12.5625 15.8789 12.5625 16C12.5625 16.3285 12.6098 16.6459 12.6962 16.947C12.6969 16.9492 12.6974 16.9514 12.698 16.9536C10.3277 18.8757 8.71537 21.5542 8.06825 24.4048C5.88869 22.3469 4.61737 19.5656 4.45581 16.6454ZM16 27.5625C13.6914 27.5625 11.5389 26.882 9.73175 25.7116C10.1343 22.9389 11.5613 20.3654 13.7041 18.5557C14.1952 18.9973 14.8136 19.2997 15.4971 19.4003C16.2572 22.3146 17.9815 24.8849 20.3743 26.7024C19.0241 27.2563 17.5473 27.5625 16 27.5625ZM22.2455 25.7266C19.8685 24.1961 18.1355 21.8536 17.3718 19.1513C17.7567 18.9834 18.1395 18.7271 18.4565 18.4038C21.3353 19.5349 24.4656 19.5921 27.2286 18.7603C26.5211 21.6386 24.7271 24.1276 22.2455 25.7266ZM19.3565 16.7396C19.409 16.5013 19.4375 16.2539 19.4375 16C19.4375 15.5486 19.3492 15.1176 19.1903 14.7224C21.3241 12.599 22.6759 9.81663 23.0419 6.83588C25.7889 8.95175 27.5625 12.2724 27.5625 16C27.5625 16.2248 27.5554 16.448 27.5426 16.6697C24.9169 17.6918 21.9738 17.7076 19.3565 16.7396Z" fill="#3749BB"/>
<path d="M4.375 5.625C5.06536 5.625 5.625 5.06536 5.625 4.375C5.625 3.68464 5.06536 3.125 4.375 3.125C3.68464 3.125 3.125 3.68464 3.125 4.375C3.125 5.06536 3.68464 5.625 4.375 5.625Z" fill="#2B398F"/>
<path d="M4.375 5.625C5.06536 5.625 5.625 5.06536 5.625 4.375C5.625 3.68464 5.06536 3.125 4.375 3.125C3.68464 3.125 3.125 3.68464 3.125 4.375C3.125 5.06536 3.68464 5.625 4.375 5.625Z" fill="#3749BB"/>
<path d="M27.625 5.625C28.3154 5.625 28.875 5.06536 28.875 4.375C28.875 3.68464 28.3154 3.125 27.625 3.125C26.9346 3.125 26.375 3.68464 26.375 4.375C26.375 5.06536 26.9346 5.625 27.625 5.625Z" fill="#2B398F"/>
<path d="M27.625 5.625C28.3154 5.625 28.875 5.06536 28.875 4.375C28.875 3.68464 28.3154 3.125 27.625 3.125C26.9346 3.125 26.375 3.68464 26.375 4.375C26.375 5.06536 26.9346 5.625 27.625 5.625Z" fill="#3749BB"/>
<path d="M4.375 28.875C5.06536 28.875 5.625 28.3154 5.625 27.625C5.625 26.9346 5.06536 26.375 4.375 26.375C3.68464 26.375 3.125 26.9346 3.125 27.625C3.125 28.3154 3.68464 28.875 4.375 28.875Z" fill="#2B398F"/>
<path d="M4.375 28.875C5.06536 28.875 5.625 28.3154 5.625 27.625C5.625 26.9346 5.06536 26.375 4.375 26.375C3.68464 26.375 3.125 26.9346 3.125 27.625C3.125 28.3154 3.68464 28.875 4.375 28.875Z" fill="#3749BB"/>
<path d="M27.625 28.875C28.3154 28.875 28.875 28.3154 28.875 27.625C28.875 26.9346 28.3154 26.375 27.625 26.375C26.9346 26.375 26.375 26.9346 26.375 27.625C26.375 28.3154 26.9346 28.875 27.625 28.875Z" fill="#2B398F"/>
<path d="M27.625 28.875C28.3154 28.875 28.875 28.3154 28.875 27.625C28.875 26.9346 28.3154 26.375 27.625 26.375C26.9346 26.375 26.375 26.9346 26.375 27.625C26.375 28.3154 26.9346 28.875 27.625 28.875Z" fill="#3749BB"/>
</svg>
